<svg width="25" height="22" viewBox="0 0 25 22" fill="none" xmlns="http://www.w3.org/2000/svg">
<path d="M7.43625 1.83301H5.48474C3.23537 1.83301 2.0542 2.88717 2.0542 4.88551V6.62717C2.0542 8.62551 3.23537 9.67967 5.47447 9.67967H7.42598C9.66507 9.67967 10.8462 8.62551 10.8462 6.62717V4.88551C10.8565 2.88717 9.67534 1.83301 7.43625 1.83301Z" fill="#082032"/>
<path d="M19.176 1.83301H17.2245C14.9854 1.83301 13.8042 2.88717 13.8042 4.88551V6.62717C13.8042 8.62551 14.9854 9.67967 17.2245 9.67967H19.176C21.4151 9.67967 22.5962 8.62551 22.5962 6.62717V4.88551C22.5962 2.88717 21.4151 1.83301 19.176 1.83301Z" fill="#082032"/>
<path d="M19.176 12.3105H17.2245C14.9854 12.3105 13.8042 13.3647 13.8042 15.363V17.1047C13.8042 19.103 14.9854 20.1572 17.2245 20.1572H19.176C21.4151 20.1572 22.5962 19.103 22.5962 17.1047V15.363C22.5962 13.3647 21.4151 12.3105 19.176 12.3105Z" fill="#082032"/>
<path d="M7.43625 12.3105H5.48474C3.23537 12.3105 2.0542 13.3647 2.0542 15.363V17.1047C2.0542 19.1122 3.23537 20.1664 5.47447 20.1664H7.42598C9.66507 20.1664 10.8462 19.1122 10.8462 17.1139V15.3722C10.8565 13.3647 9.67534 12.3105 7.43625 12.3105Z" fill="#082032"/>
</svg>
