<svg width="20" height="20" viewBox="0 0 20 20" fill="none" xmlns="http://www.w3.org/2000/svg">
<path d="M9.94709 5.89065C7.47795 5.89065 5.4321 7.90123 5.4321 10.4056C5.4321 12.9101 7.44268 14.9206 9.94709 14.9206C12.4515 14.9206 14.4621 12.8748 14.4621 10.4056C14.4621 7.93651 12.4162 5.89065 9.94709 5.89065ZM9.94709 13.2981C8.35979 13.2981 7.05467 11.9929 7.05467 10.4056C7.05467 8.81834 8.35979 7.51323 9.94709 7.51323C11.5344 7.51323 12.8395 8.81834 12.8395 10.4056C12.8395 11.9929 11.5344 13.2981 9.94709 13.2981Z" fill="#292D32"/>
<path d="M14.6384 6.80776C15.2034 6.80776 15.6614 6.34978 15.6614 5.78483C15.6614 5.21988 15.2034 4.7619 14.6384 4.7619C14.0735 4.7619 13.6155 5.21988 13.6155 5.78483C13.6155 6.34978 14.0735 6.80776 14.6384 6.80776Z" fill="#292D32"/>
<path d="M17.2839 3.13933C16.3668 2.18695 15.0617 1.69312 13.5802 1.69312H6.31392C3.24514 1.69312 1.19928 3.73898 1.19928 6.80776V14.0388C1.19928 15.5556 1.69311 16.8607 2.68076 17.8131C3.63314 18.7302 4.90298 19.1887 6.34919 19.1887H13.545C15.0617 19.1887 16.3316 18.6949 17.2487 17.8131C18.201 16.8959 18.6949 15.5908 18.6949 14.0741V6.80776C18.6949 5.32628 18.201 4.05644 17.2839 3.13933ZM17.1428 14.0741C17.1428 15.1675 16.7548 16.0494 16.1199 16.649C15.485 17.2487 14.6032 17.5661 13.545 17.5661H6.34919C5.29099 17.5661 4.40916 17.2487 3.77424 16.649C3.13932 16.0141 2.82185 15.1323 2.82185 14.0388V6.80776C2.82185 5.74956 3.13932 4.86772 3.77424 4.2328C4.37388 3.63316 5.29099 3.3157 6.34919 3.3157H13.6155C14.6737 3.3157 15.5555 3.63316 16.1905 4.26808C16.7901 4.903 17.1428 5.78483 17.1428 6.80776V14.0741Z" fill="#292D32"/>
</svg>
