<svg width="21" height="21" viewBox="0 0 21 21" fill="none" xmlns="http://www.w3.org/2000/svg">
<path d="M14.0116 1.66797H11.8432C9.17428 1.66797 7.50623 3.33602 7.50623 6.0049V9.3827H11.2093L9.48286 7.65627C9.35776 7.53116 9.29938 7.3727 9.29938 7.21423C9.29938 7.05577 9.35776 6.89731 9.48286 6.7722C9.72473 6.53033 10.1251 6.53033 10.3669 6.7722L13.1609 9.56618C13.4028 9.80805 13.4028 10.2084 13.1609 10.4503L10.3669 13.2442C10.1251 13.4861 9.72473 13.4861 9.48286 13.2442C9.241 13.0024 9.241 12.602 9.48286 12.3602L11.2093 10.6337H7.50623V14.0115C7.50623 16.6804 9.17428 18.3485 11.8432 18.3485H14.0033C16.6722 18.3485 18.3402 16.6804 18.3402 14.0115V6.0049C18.3485 3.33602 16.6805 1.66797 14.0116 1.66797Z" fill="#EAEAEA"/>
<path d="M2.29355 9.38281C1.9516 9.38281 1.66803 9.66638 1.66803 10.0083C1.66803 10.3503 1.9516 10.6338 2.29355 10.6338H7.5062V9.38281H2.29355Z" fill="#EAEAEA"/>
</svg>
