<svg width="18" height="18" viewBox="0 0 18 18" fill="none" xmlns="http://www.w3.org/2000/svg">
<path d="M16.29 4.70983V5.58732C16.29 6.32232 15.9975 6.95232 15.48 7.31983C15.1575 7.55982 14.76 7.67232 14.3475 7.67232C14.0925 7.67232 13.8375 7.63483 13.575 7.54483L9.54004 6.20232V13.4998C9.54004 15.4648 7.94254 17.0623 5.97754 17.0623C4.01254 17.0623 2.41504 15.4648 2.41504 13.4998C2.41504 11.5348 4.01254 9.93732 5.97754 9.93732C6.92254 9.93732 7.77754 10.3123 8.41504 10.9123V2.99982C8.41504 2.27232 8.71504 1.64232 9.23254 1.26732C9.75004 0.899825 10.44 0.817325 11.13 1.04232L14.445 2.15232C15.465 2.48982 16.29 3.63733 16.29 4.70983Z" fill="#082032"/>
</svg>
