<svg width="21" height="21" viewBox="0 0 21 21" fill="none" xmlns="http://www.w3.org/2000/svg">
<path d="M20.0342 14.4962C20.0342 18.1362 17.8642 20.3062 14.2242 20.3062H13.0342C12.4842 20.3062 12.0342 19.8562 12.0342 19.3062V13.5362C12.0342 13.2662 12.2542 13.0362 12.5242 13.0362L14.2842 13.0062C14.4242 12.9962 14.5442 12.8962 14.5742 12.7562L14.9242 10.8462C14.9542 10.6662 14.8142 10.4962 14.6242 10.4962L12.4942 10.5262C12.2142 10.5262 11.9942 10.3062 11.9842 10.0362L11.9442 7.58615C11.9442 7.42615 12.0742 7.28616 12.2442 7.28616L14.6442 7.24615C14.8142 7.24615 14.9442 7.11617 14.9442 6.94617L14.9042 4.54614C14.9042 4.37614 14.7742 4.24615 14.6042 4.24615L11.9042 4.28616C10.2442 4.31616 8.92419 5.67615 8.95419 7.33615L9.00418 10.0862C9.01418 10.3662 8.79419 10.5862 8.51419 10.5962L7.31418 10.6161C7.14418 10.6161 7.01419 10.7461 7.01419 10.9161L7.04419 12.8162C7.04419 12.9862 7.17418 13.1161 7.34418 13.1161L8.54419 13.0962C8.82419 13.0962 9.04417 13.3162 9.05417 13.5862L9.14417 19.2862C9.15417 19.8462 8.70417 20.3062 8.14417 20.3062H5.84418C2.20418 20.3062 0.0341797 18.1361 0.0341797 14.4861V6.11615C0.0341797 2.47615 2.20418 0.306152 5.84418 0.306152H14.2242C17.8642 0.306152 20.0342 2.47615 20.0342 6.11615V14.4962Z" fill="#BE3455"/>
</svg>
