<svg width="20" height="20" viewBox="0 0 20 20" fill="none" xmlns="http://www.w3.org/2000/svg">
<path d="M9.94712 5.89087C7.47798 5.89087 5.43213 7.90145 5.43213 10.4059C5.43213 12.9103 7.44271 14.9209 9.94712 14.9209C12.4515 14.9209 14.4621 12.875 14.4621 10.4059C14.4621 7.93672 12.4163 5.89087 9.94712 5.89087ZM9.94712 13.2983C8.35982 13.2983 7.0547 11.9932 7.0547 10.4059C7.0547 8.81856 8.35982 7.51344 9.94712 7.51344C11.5344 7.51344 12.8395 8.81856 12.8395 10.4059C12.8395 11.9932 11.5344 13.2983 9.94712 13.2983Z" fill="#BE3455"/>
<path d="M14.6382 6.80806C15.2031 6.80806 15.6611 6.35008 15.6611 5.78513C15.6611 5.22019 15.2031 4.76221 14.6382 4.76221C14.0732 4.76221 13.6152 5.22019 13.6152 5.78513C13.6152 6.35008 14.0732 6.80806 14.6382 6.80806Z" fill="#BE3455"/>
<path d="M17.2839 3.13957C16.3668 2.18719 15.0617 1.69336 13.5802 1.69336H6.31386C3.24507 1.69336 1.19922 3.73921 1.19922 6.808V14.039C1.19922 15.5558 1.69305 16.8609 2.6807 17.8133C3.63308 18.7304 4.90292 19.189 6.34913 19.189H13.5449C15.0617 19.189 16.3315 18.6951 17.2486 17.8133C18.201 16.8962 18.6948 15.5911 18.6948 14.0743V6.808C18.6948 5.32652 18.201 4.05667 17.2839 3.13957ZM17.1428 14.0743C17.1428 15.1678 16.7548 16.0496 16.1199 16.6493C15.4849 17.2489 14.6031 17.5664 13.5449 17.5664H6.34913C5.29093 17.5664 4.4091 17.2489 3.77417 16.6493C3.13925 16.0143 2.82179 15.1325 2.82179 14.039V6.808C2.82179 5.7498 3.13925 4.86796 3.77417 4.23304C4.37382 3.63339 5.29093 3.31593 6.34913 3.31593H13.6154C14.6736 3.31593 15.5555 3.63339 16.1904 4.26832C16.79 4.90324 17.1428 5.78507 17.1428 6.808V14.0743Z" fill="#BE3455"/>
</svg>
