<svg width="26" height="26" viewBox="0 0 26 26" fill="none" xmlns="http://www.w3.org/2000/svg">
<path d="M12.6392 22.2963C18.0958 22.2963 22.5193 17.8728 22.5193 12.4162C22.5193 6.95959 18.0958 2.53613 12.6392 2.53613C7.18261 2.53613 2.75916 6.95959 2.75916 12.4162C2.75916 17.8728 7.18261 22.2963 12.6392 22.2963Z" fill="#BE3455"/>
<path d="M22.8313 23.3362C22.6441 23.3362 22.4569 23.2634 22.3217 23.1282L20.3873 21.1938C20.1065 20.913 20.1065 20.4554 20.3873 20.1642C20.6681 19.8834 21.1257 19.8834 21.4169 20.1642L23.3513 22.0986C23.6321 22.3794 23.6321 22.837 23.3513 23.1282C23.2057 23.2634 23.0185 23.3362 22.8313 23.3362Z" fill="#BE3455"/>
</svg>
