<svg width="21" height="21" viewBox="0 0 21 21" fill="none" xmlns="http://www.w3.org/2000/svg">
<path fill-rule="evenodd" clip-rule="evenodd" d="M10.0342 0.306152C4.51418 0.306152 0.0341797 4.78615 0.0341797 10.3062C0.0341797 15.8262 4.51418 20.3062 10.0342 20.3062C15.5542 20.3062 20.0342 15.8262 20.0342 10.3062C20.0342 4.78615 15.5542 0.306152 10.0342 0.306152ZM15.3442 13.6161C15.0542 13.7761 14.8142 13.8461 14.6142 13.8961C14.4442 13.9361 14.3042 13.9762 14.1842 14.0562C14.0542 14.1362 14.0442 14.2661 14.0242 14.3861C14.0042 14.4961 13.9942 14.5861 13.9142 14.6461C13.8242 14.7061 13.6542 14.7162 13.4242 14.7262C13.1242 14.7462 12.7442 14.7561 12.2842 14.8961C12.0642 14.9761 11.8642 15.0962 11.6642 15.2162C11.2642 15.4662 10.8142 15.7361 10.0242 15.7361C9.24417 15.7361 8.79416 15.4662 8.39417 15.2162C8.19417 15.0862 7.99419 14.9661 7.76419 14.8861C7.31419 14.7461 6.92418 14.7262 6.62418 14.7162C6.39418 14.7062 6.23419 14.6961 6.13419 14.6361C6.05419 14.5861 6.04417 14.4862 6.02417 14.3762C6.00417 14.2562 5.99417 14.1261 5.86417 14.0461C5.74417 13.9661 5.59417 13.9262 5.43417 13.8762C5.23417 13.8262 4.99419 13.7661 4.70419 13.6061C4.36419 13.4161 4.56419 13.3062 4.67419 13.2462C6.60419 12.3162 6.90418 10.8761 6.91418 10.7661C6.91418 10.7561 6.91418 10.7562 6.91418 10.7462C6.93418 10.6262 6.94417 10.5261 6.80417 10.3961C6.71417 10.3061 6.40417 10.1062 6.15417 9.94617C6.04417 9.86617 5.94419 9.80615 5.88419 9.77615C5.60419 9.57615 5.48419 9.38614 5.57419 9.13614C5.63419 8.96614 5.79419 8.90616 5.95419 8.90616C6.00419 8.90616 6.06419 8.91615 6.10419 8.92615C6.28419 8.96615 6.46418 9.03616 6.62418 9.09616C6.73418 9.14616 6.82416 9.17617 6.89417 9.19617C6.91417 9.20617 6.94419 9.20615 6.95419 9.20615C7.05419 9.20615 7.08419 9.15615 7.07419 9.05615C7.07419 9.02615 7.07418 8.99616 7.06418 8.96616C7.04418 8.61616 7.01417 8.00617 7.05417 7.44617C7.13417 6.60617 7.40418 6.17616 7.72418 5.81616C7.88418 5.63616 8.61418 4.86615 10.0042 4.86615C11.4042 4.86615 12.1242 5.63615 12.2842 5.80615C12.6042 6.17615 12.8742 6.59617 12.9542 7.44617C13.0042 8.03617 12.9642 8.66614 12.9342 9.01614V9.04614C12.9242 9.15614 12.9542 9.19617 13.0542 9.19617C13.0742 9.19617 13.0942 9.19616 13.1142 9.18616C13.1842 9.16616 13.2742 9.13616 13.3842 9.09616C13.5342 9.03616 13.7142 8.96615 13.9042 8.92615C13.9542 8.90615 14.0042 8.90616 14.0542 8.90616C14.2242 8.90616 14.3742 8.97615 14.4342 9.14615C14.5242 9.38615 14.4042 9.57615 14.1242 9.77615C14.0742 9.81615 13.9742 9.88617 13.8542 9.94617C13.6142 10.1062 13.2942 10.3061 13.2042 10.3961C13.0642 10.5261 13.0742 10.6262 13.0942 10.7462C13.0942 10.7562 13.0942 10.7661 13.0942 10.7661C13.1142 10.8761 13.4142 12.3162 15.3342 13.2462C15.4842 13.3062 15.6842 13.4262 15.3442 13.6161Z" fill="#BE3455"/>
</svg>
