<svg width="20" height="20" viewBox="0 0 20 20" fill="none" xmlns="http://www.w3.org/2000/svg">
<path d="M18.6397 5.31459C18.0008 5.59858 17.3132 5.79013 16.5918 5.87586C17.3284 5.43489 17.8932 4.73639 18.1595 3.90313C17.4706 4.312 16.7079 4.60868 15.8954 4.76884C15.2452 4.07599 14.3185 3.64278 13.293 3.64278C11.3241 3.64278 9.72781 5.2391 9.72781 7.2083C9.72781 7.48734 9.75921 7.75934 9.82024 8.02074C6.85691 7.87187 4.22942 6.45265 2.47083 4.29542C2.16391 4.82176 1.98823 5.43418 1.98823 6.08823C1.98823 7.32507 2.61758 8.41656 3.57432 9.05579C2.99012 9.0371 2.44014 8.87658 1.9593 8.60953C1.95895 8.62435 1.95895 8.63952 1.95895 8.65469C1.95895 10.3819 3.18803 11.8226 4.81927 12.1507C4.52011 12.2318 4.20508 12.2756 3.87982 12.2756C3.64981 12.2756 3.4265 12.2534 3.20884 12.2114C3.66286 13.6278 4.97943 14.659 6.53941 14.6875C5.31915 15.6439 3.7821 16.214 2.11135 16.214C1.82384 16.214 1.53985 16.1971 1.2608 16.1639C2.83913 17.176 4.71308 17.7659 6.72638 17.7659C13.2849 17.7659 16.8708 12.3331 16.8708 7.6214C16.8708 7.46688 16.8677 7.31272 16.861 7.15961C17.5573 6.65797 18.162 6.02967 18.6397 5.31459Z" fill="#292D32"/>
</svg>
