<svg width="18" height="18" viewBox="0 0 18 18" fill="none" xmlns="http://www.w3.org/2000/svg">
<path d="M8.74741 4.1958C6.27828 4.1958 4.23242 6.20558 4.23242 8.70899C4.23242 11.2124 6.243 13.2222 8.74741 13.2222C11.2518 13.2222 13.2624 11.1771 13.2624 8.70899C13.2624 6.24084 11.2166 4.1958 8.74741 4.1958ZM8.74741 11.6002C7.16011 11.6002 5.855 10.2957 5.855 8.70899C5.855 7.12232 7.16011 5.81773 8.74741 5.81773C10.3347 5.81773 11.6398 7.12232 11.6398 8.70899C11.6398 10.2957 10.3347 11.6002 8.74741 11.6002Z" fill="#F8F3EB"/>
<path d="M13.4389 5.11242C14.0039 5.11242 14.4619 4.65462 14.4619 4.0899C14.4619 3.52518 14.0039 3.06738 13.4389 3.06738C12.874 3.06738 12.416 3.52518 12.416 4.0899C12.416 4.65462 12.874 5.11242 13.4389 5.11242Z" fill="#F8F3EB"/>
<path d="M16.0847 1.44563C15.1675 0.493629 13.8624 0 12.381 0H5.11464C2.04586 0 0 2.04504 0 5.11259V12.3407C0 13.8569 0.493827 15.1615 1.48148 16.1135C2.43386 17.0302 3.7037 17.4886 5.14991 17.4886H12.3457C13.8624 17.4886 15.1323 16.995 16.0494 16.1135C17.0018 15.1967 17.4956 13.8921 17.4956 12.376V5.11259C17.4956 3.6317 17.0018 2.36237 16.0847 1.44563ZM15.9436 12.376C15.9436 13.469 15.5556 14.3505 14.9206 14.9499C14.2857 15.5493 13.4039 15.8667 12.3457 15.8667H5.14991C4.09171 15.8667 3.20988 15.5493 2.57496 14.9499C1.94004 14.3153 1.62257 13.4338 1.62257 12.3407V5.11259C1.62257 4.05481 1.94004 3.17333 2.57496 2.53867C3.1746 1.93926 4.09171 1.62193 5.14991 1.62193H12.4162C13.4744 1.62193 14.3563 1.93926 14.9912 2.57393C15.5908 3.20859 15.9436 4.09007 15.9436 5.11259V12.376Z" fill="#F8F3EB"/>
</svg>
